# xmcd
#
# Track frame offsets: 
#        150
#        23413
#        42730
#        57477
#        83868
#        110304
#        131972
#        152189
#        170825
#        190215
#
# Disc length: 2768 seconds
#
# Revision: 1
# Processed by: cddbd v1.5.2PL0 Copyright (c) Steve Scherf et al.
# Submitted via: ExactAudioCopy v1.0b3
#
DISCID=8b0ace0a
DTITLE=Vargas Blues Band - Vargas, Bogert and Appice, Featuring Paul Sho
DTITLE=rtino
DYEAR=2011
DGENRE=Blues
TTITLE0=Lady
TTITLE1=Surrender
TTITLE2=Right On
TTITLE3=Parisienne Walkways
TTITLE4=You Keep Me Hangin On
TTITLE5=Soul Of Love
TTITLE6=Black Night
TTITLE7=It S A Long Way To The Top (If You Wanna Rock N Roll)
TTITLE8=Tonight Is The Night
TTITLE9=Over My Shoulder
EXTD=
EXTT0=
EXTT1=
EXTT2=
EXTT3=
EXTT4=
EXTT5=
EXTT6=
EXTT7=
EXTT8=
EXTT9=
PLAYORDER=
